<?xml version="1.0" encoding="UTF-8"?>
<svg xmlns="http://www.w3.org/2000/svg" xmlns:xlink="http://www.w3.org/1999/xlink" viewBox="0 0 135.13 148.48">
  <defs>
    <style>
      .cls-1 {
        fill: url(#_Áåçûìÿííûé_ãðàäèåíò_797-3);
      }

      .cls-2 {
        fill: url(#_Áåçûìÿííûé_ãðàäèåíò_752-3);
      }

      .cls-3 {
        fill: url(#_Áåçûìÿííûé_ãðàäèåíò_752-10);
      }

      .cls-4 {
        fill: url(#_Áåçûìÿííûé_ãðàäèåíò_797-7);
      }

      .cls-5 {
        fill: url(#_Áåçûìÿííûé_ãðàäèåíò_797-9);
      }

      .cls-6 {
        fill: url(#_Áåçûìÿííûé_ãðàäèåíò_752-5);
      }

      .cls-7 {
        fill: url(#_Áåçûìÿííûé_ãðàäèåíò_804);
      }

      .cls-8 {
        fill: url(#_Áåçûìÿííûé_ãðàäèåíò_797-4);
      }

      .cls-9 {
        fill: url(#_Áåçûìÿííûé_ãðàäèåíò_797);
      }

      .cls-10 {
        fill: #e0be69;
      }

      .cls-10, .cls-11 {
        mix-blend-mode: screen;
      }

      .cls-12 {
        isolation: isolate;
      }

      .cls-13 {
        fill: url(#_Áåçûìÿííûé_ãðàäèåíò_797-2);
      }

      .cls-14 {
        fill: url(#_Áåçûìÿííûé_ãðàäèåíò_797-10);
      }

      .cls-11 {
        fill: #947a3a;
      }

      .cls-15 {
        fill: url(#_Áåçûìÿííûé_ãðàäèåíò_797-5);
      }

      .cls-16 {
        fill: url(#_Áåçûìÿííûé_ãðàäèåíò_797-8);
      }

      .cls-17 {
        fill: url(#_Áåçûìÿííûé_ãðàäèåíò_797-11);
      }

      .cls-18 {
        fill: url(#_Áåçûìÿííûé_ãðàäèåíò_752-7);
      }

      .cls-19 {
        fill: url(#_Áåçûìÿííûé_ãðàäèåíò_752-2);
      }

      .cls-20 {
        fill: url(#_Áåçûìÿííûé_ãðàäèåíò_752);
      }

      .cls-21 {
        fill: url(#_Áåçûìÿííûé_ãðàäèåíò_752-8);
      }

      .cls-22 {
        fill: url(#_Áåçûìÿííûé_ãðàäèåíò_752-4);
      }

      .cls-23 {
        fill: url(#_Áåçûìÿííûé_ãðàäèåíò_797-6);
      }

      .cls-24 {
        fill: url(#_Áåçûìÿííûé_ãðàäèåíò_797-12);
      }

      .cls-25 {
        fill: url(#_Áåçûìÿííûé_ãðàäèåíò_752-6);
      }

      .cls-26 {
        fill: url(#_Áåçûìÿííûé_ãðàäèåíò_752-9);
      }
    </style>
    <linearGradient id="_Áåçûìÿííûé_ãðàäèåíò_804" data-name="Áåçûìÿííûé ãðàäèåíò 804" x1="20.67" y1="71.88" x2="69.41" y2="115.14" gradientUnits="userSpaceOnUse">
      <stop offset="0" stop-color="#ff7d21"/>
      <stop offset=".12" stop-color="#ff8e2b"/>
      <stop offset=".36" stop-color="#ffbb47"/>
      <stop offset=".53" stop-color="#ffdf5e"/>
      <stop offset=".72" stop-color="#ffb040"/>
      <stop offset=".9" stop-color="#ff8b29"/>
      <stop offset="1" stop-color="#ff7d21"/>
    </linearGradient>
    <radialGradient id="_Áåçûìÿííûé_ãðàäèåíò_752" data-name="Áåçûìÿííûé ãðàäèåíò 752" cx="56.16" cy="82.31" fx="56.16" fy="82.31" r="51.77" gradientUnits="userSpaceOnUse">
      <stop offset="0" stop-color="#233154"/>
      <stop offset=".23" stop-color="#203659"/>
      <stop offset=".53" stop-color="#1a446a"/>
      <stop offset=".87" stop-color="#105c84"/>
      <stop offset="1" stop-color="#0c6791"/>
    </radialGradient>
    <linearGradient id="_Áåçûìÿííûé_ãðàäèåíò_797" data-name="Áåçûìÿííûé ãðàäèåíò 797" x1="9.72" y1="-4.22" x2="140.06" y2="136.8" gradientUnits="userSpaceOnUse">
      <stop offset="0" stop-color="#ff9421"/>
      <stop offset=".15" stop-color="#ffa52f"/>
      <stop offset=".45" stop-color="#ffd253"/>
      <stop offset=".53" stop-color="#ffdf5e"/>
      <stop offset=".66" stop-color="#ffc64a"/>
      <stop offset=".88" stop-color="#ffa22c"/>
      <stop offset="1" stop-color="#ff9421"/>
    </linearGradient>
    <radialGradient id="_Áåçûìÿííûé_ãðàäèåíò_752-2" data-name="Áåçûìÿííûé ãðàäèåíò 752" cx="56.16" cy="82.31" fx="56.16" fy="82.31" r="51.77" xlink:href="#_Áåçûìÿííûé_ãðàäèåíò_752"/>
    <linearGradient id="_Áåçûìÿííûé_ãðàäèåíò_797-2" data-name="Áåçûìÿííûé ãðàäèåíò 797" x1="21.09" y1="-13.11" x2="152.8" y2="130.92" xlink:href="#_Áåçûìÿííûé_ãðàäèåíò_797"/>
    <radialGradient id="_Áåçûìÿííûé_ãðàäèåíò_752-3" data-name="Áåçûìÿííûé ãðàäèåíò 752" cx="68.48" cy="72.36" fx="68.48" fy="72.36" r="29.17" xlink:href="#_Áåçûìÿííûé_ãðàäèåíò_752"/>
    <radialGradient id="_Áåçûìÿííûé_ãðàäèåíò_752-4" data-name="Áåçûìÿííûé ãðàäèåíò 752" cx="68.48" cy="72.36" fx="68.48" fy="72.36" r="29.17" xlink:href="#_Áåçûìÿííûé_ãðàäèåíò_752"/>
    <radialGradient id="_Áåçûìÿííûé_ãðàäèåíò_752-5" data-name="Áåçûìÿííûé ãðàäèåíò 752" cx="68.48" cy="72.36" fx="68.48" fy="72.36" r="29.17" xlink:href="#_Áåçûìÿííûé_ãðàäèåíò_752"/>
    <radialGradient id="_Áåçûìÿííûé_ãðàäèåíò_752-6" data-name="Áåçûìÿííûé ãðàäèåíò 752" cx="68.48" cy="72.36" fx="68.48" fy="72.36" r="29.17" xlink:href="#_Áåçûìÿííûé_ãðàäèåíò_752"/>
    <radialGradient id="_Áåçûìÿííûé_ãðàäèåíò_752-7" data-name="Áåçûìÿííûé ãðàäèåíò 752" cx="68.48" cy="72.36" fx="68.48" fy="72.36" r="29.17" xlink:href="#_Áåçûìÿííûé_ãðàäèåíò_752"/>
    <radialGradient id="_Áåçûìÿííûé_ãðàäèåíò_752-8" data-name="Áåçûìÿííûé ãðàäèåíò 752" cx="68.48" cy="72.36" fx="68.48" fy="72.36" r="29.17" xlink:href="#_Áåçûìÿííûé_ãðàäèåíò_752"/>
    <radialGradient id="_Áåçûìÿííûé_ãðàäèåíò_752-9" data-name="Áåçûìÿííûé ãðàäèåíò 752" cx="68.48" cy="72.36" fx="68.48" fy="72.36" r="29.17" xlink:href="#_Áåçûìÿííûé_ãðàäèåíò_752"/>
    <radialGradient id="_Áåçûìÿííûé_ãðàäèåíò_752-10" data-name="Áåçûìÿííûé ãðàäèåíò 752" cx="68.48" cy="72.36" fx="68.48" fy="72.36" r="29.17" xlink:href="#_Áåçûìÿííûé_ãðàäèåíò_752"/>
    <linearGradient id="_Áåçûìÿííûé_ãðàäèåíò_797-3" data-name="Áåçûìÿííûé ãðàäèåíò 797" x1="34.32" y1="-26.8" x2="167.39" y2="114.31" xlink:href="#_Áåçûìÿííûé_ãðàäèåíò_797"/>
    <linearGradient id="_Áåçûìÿííûé_ãðàäèåíò_797-4" data-name="Áåçûìÿííûé ãðàäèåíò 797" x1="37.29" y1="-29.6" x2="170.37" y2="111.5" xlink:href="#_Áåçûìÿííûé_ãðàäèåíò_797"/>
    <linearGradient id="_Áåçûìÿííûé_ãðàäèåíò_797-5" data-name="Áåçûìÿííûé ãðàäèåíò 797" x1="15.59" y1="-9.14" x2="148.67" y2="131.97" xlink:href="#_Áåçûìÿííûé_ãðàäèåíò_797"/>
    <linearGradient id="_Áåçûìÿííûé_ãðàäèåíò_797-6" data-name="Áåçûìÿííûé ãðàäèåíò 797" x1="9.21" y1="-3.12" x2="142.29" y2="137.99" xlink:href="#_Áåçûìÿííûé_ãðàäèåíò_797"/>
    <linearGradient id="_Áåçûìÿííûé_ãðàäèåíò_797-7" data-name="Áåçûìÿííûé ãðàäèåíò 797" x1="6.37" y1="-.44" x2="139.44" y2="140.67" xlink:href="#_Áåçûìÿííûé_ãðàäèåíò_797"/>
    <linearGradient id="_Áåçûìÿííûé_ãðàäèåíò_797-8" data-name="Áåçûìÿííûé ãðàäèåíò 797" x1="-12.26" y1="17.13" x2="120.82" y2="158.23" xlink:href="#_Áåçûìÿííûé_ãðàäèåíò_797"/>
    <linearGradient id="_Áåçûìÿííûé_ãðàäèåíò_797-9" data-name="Áåçûìÿííûé ãðàäèåíò 797" x1="-31.83" y1="35.58" x2="101.24" y2="176.69" xlink:href="#_Áåçûìÿííûé_ãðàäèåíò_797"/>
    <linearGradient id="_Áåçûìÿííûé_ãðàäèåíò_797-10" data-name="Áåçûìÿííûé ãðàäèåíò 797" x1="-22.19" y1="26.49" x2="110.88" y2="167.6" xlink:href="#_Áåçûìÿííûé_ãðàäèåíò_797"/>
    <linearGradient id="_Áåçûìÿííûé_ãðàäèåíò_797-11" data-name="Áåçûìÿííûé ãðàäèåíò 797" x1="11.34" y1="-5.13" x2="144.41" y2="135.98" xlink:href="#_Áåçûìÿííûé_ãðàäèåíò_797"/>
    <linearGradient id="_Áåçûìÿííûé_ãðàäèåíò_797-12" data-name="Áåçûìÿííûé ãðàäèåíò 797" x1="7.63" y1="-1.63" x2="140.71" y2="139.47" xlink:href="#_Áåçûìÿííûé_ãðàäèåíò_797"/>
  </defs>
  <g class="cls-12">
    <g id="Layer_2" data-name="Layer 2">
      <g id="layer_1" data-name="layer 1">
        <g>
          <path class="cls-7" d="M90.7,113.15c.94,1,1.73,1.91,1.63,1.96-4.85,2.23-10.12,3.52-15.44,3.84-2.66,.16-5.34,.07-7.99-.27-1.32-.17-2.64-.39-3.94-.69-.09-.02-2.66-.53-2.45-.19,.56,.94-.13,2.23-1.12,2.68-1,.45-2.16,.28-3.22,.03-2.54-.59-5.27-1.57-7.42-3.08-1.97-1.38-3.29-3.58-5.56-4.58-4.26-1.87-8.32-4.68-11.01-8.53-1.5-2.13-1.82-3.78-2.27-6.29-.44-2.44-1.17-4.9-2.72-6.88-.53-.67-1.15-1.28-1.65-1.97-2.37-3.25-1.97-7.77-2.26-11.58-.13-1.7-.94-4.8,.92-5.89,.38-.22,.57-4.14,.55-4.69-.04-1.27-.28-2.63-.44-3.9-.18-1.47,1.05-2.69,2.59-2.64,1.55,.04,2.82,1.12,3.95,2.14,12.88,11.63,25.76,23.27,38.64,34.9,3.72,3.36,7.39,6.77,11.33,9.87,1.68,1.32,3.59,1.85,5.25,3.11,.23,.18,1.54,1.49,2.65,2.68Z"/>
          <path class="cls-20" d="M36.09,82.82c.18,.13,.36,.28,.52,.44,1.03,1.05,1.21,2.67,1.13,4.14-.11,2.06-.56,4.13-.25,6.19,.25,1.65,1.07,3.24,1.94,4.67,1.86,3.09,4.53,5.7,7.69,7.44,.76,.42,2.02,.61,2.25-.23,.09-.31-.04-.65,0-.97,.08-.75,.99-1.18,1.74-1.02,.74,.16,1.33,.7,1.89,1.22,2.13,1.97,4.44,3.85,7.15,4.91,1.67,.65,3.51,.96,5.29,.75,1.85-.21,3.18-1.43,5.05-1,.96,.22,1.86,.69,2.84,.81,.98,.12,2.14-.25,2.47-1.18,.23-.65,0-1.37-.29-1.99-1.29-2.78-3.68-4.87-5.99-6.89-6.71-5.85-13.35-11.77-19.93-17.76-3.29-3-6.56-6.01-9.81-9.05-1.59-1.48-3.18-2.97-4.76-4.46-.52-.49-1.31-1.68-2.14-1.44-.95,.27-.91,1.65-.93,2.39-.1,3.7-.41,9.64,2.86,12.17,.41,.32,.87,.58,1.29,.88Z"/>
          <path class="cls-9" d="M134.22,143.4c.35,1.04,.64,2.09,.85,3.17,.48,2.49-2.08,2.03-3.69,1.5-4.07-1.31-7.95-3.24-11.45-5.7,.17,.49,.33,.97,.5,1.46-.87,.6-2.01,.7-3.05,.51-1.04-.19-2.01-.65-2.96-1.11-2.87-1.37-5.86-2.83-7.79-5.36-.57-.75-1.05-1.66-.89-2.58,.16-.92,1.26-1.69,2.07-1.22-3.6-2.66-7.03-5.55-10.25-8.64-1.64-1.57-3.24-3.19-4.76-4.88-1.33-1.49-3.41-2.26-5.33-2.73,.47,.58,.65,1.39,.47,2.12-5.13-.74-9.68-4.55-11.33-9.46-.02-.34,.43-.6,.71-.41-4.25-3.61-8.57-7.26-13.61-9.65-1.14-.54-2.31-1.01-3.4-1.64-1.69-.98-3.16-2.3-4.58-3.64-4.51-4.23-8.82-8.68-12.91-13.32-2.04-2.32-4.03-4.69-5.96-7.11-.89-1.12-1.9-2.23-2.61-3.48-.44-.77-1.03-2.2-2.12-2.21-.21,0-.41,.08-.62,.1-.6,.05-1.12-.39-1.54-.82-5-4.97-8.46-11.26-11.63-17.55-.36-.71-.72-1.43-.83-2.21-.12-.78,.05-1.65,.62-2.2,.57-.55,1.58-.66,2.14-.09-.04-.12-.08-.24-.13-.35-1.1-2.7-3.9-5.04-5.66-7.35-1.99-2.61-3.84-5.33-5.53-8.15C5.59,24.81,2.87,18.86,.84,12.68,.35,11.19-.11,9.64,.02,8.08c.13-1.56,.96-3.16,2.4-3.78,1.47-.62,3.16-.11,4.59,.6,3.06,1.53,5.56,3.9,8.14,6.09,2.31,1.96,4.86,4.98,7.88,5.68-.11-.33,.2-.68,.54-.75s.69,.06,1.01,.19c4.19,1.73,7.89,4.66,10.53,8.34-.35,.26-.71,.52-1.06,.78-.46,.34,3.55,2.95,3.8,3.09,2.02,1.15,3.76,2.7,5.95,3.56,2.34,.92,4.9,1.26,7.4,1.26,4.14,0,8.23-.86,12.36-1.18,7.37-.56,14.21,.64,20.86,3.72,6.2,2.89,12.01,6.96,17.43,11.1,.03-.32,.4-.52,.73-.49s.6,.24,.85,.45c3.07,2.51,5.27,6.08,6.13,9.96,.09,.39,.16,.83-.03,1.18-.19,.35-.75,.52-1,.2,.86,3.45,2.19,6.83,2.57,10.42,.42,3.97,.06,7.98-.43,11.92-.37,2.98-1.51,6.71-.98,9.65,.63,3.55,1.78,7.06,3.03,10.44,1.38,3.73,3.01,7.37,4.74,10.95,1.69,3.49,3.38,6.88,5.64,10.06,.79,1.12,1.66,2.27,1.85,3.64,.05,.39-.04,.83,.03,1.2,.08,.43,.42,.86,.63,1.24,.54,.96,1.11,1.9,1.69,2.84,1.16,1.88,2.35,3.73,3.46,5.64,1.36,2.33,2.6,4.75,3.46,7.3Z"/>
          <path class="cls-19" d="M93.99,90.08c.04,.22,.12,.43,.25,.63,.76,1.1,1.77,.04,2.29-.62,.17,2.21-.73,4.48-2.36,5.99-3.7,3.41-9.14,1.53-13.15-.25-3.3-1.46-6.49-3.3-9.05-5.86,1.22-.05,2.43-.52,3.36-1.33-2.57-2.28-5.63-3.99-8.92-4.99-.45-.14-.95-.25-1.36-.02-.44,.25-.59,.85-.47,1.35,.12,.5,.44,.91,.76,1.32-2-1.03-3.87-2.34-5.53-3.86-1.46-1.34-3.09-2.67-3.75-4.59-.34-1-.45-2.06-.72-3.08-.55-2.09-1.78-3.93-2.99-5.72-1.7-2.53-3.42-5.08-5.53-7.28-.45-.47-1.07-.96-1.68-.74-.69,.25-.79,1.2-.58,1.9,.21,.7,.6,1.4,.46,2.12-2.61-.35-4.16-4.78-4.67-6.93-.67-2.8-.56-5.96,1.07-8.42,1.5-2.25,3.86-3.83,6.39-4.78,2.79-1.05,5.94-1.63,8.92-1.56-1.29,.27-2.53,.77-3.66,1.45-.22,.13-.44,.28-.59,.5-.14,.22-.19,.51-.05,.73,.14,.22,.42,.29,.68,.34,1.98,.37,4.01,.18,6.01,0,1.4-.13,2.8-.26,4.18-.52,.95-.18,3.14-.39,3.57-1.42,.38-.93-.55-2.05-1.37-2.29,1.52-.6,3.34-.21,4.9,.03,1.72,.27,3.43,.65,5.08,1.2,1.54,.51,3.26,1.32,3.62,2.9-.59,.14-.56,1.01-.24,1.52,1.05,1.62,3.29,1.77,5.18,2.12,6.02,1.12,10.07,6.08,12.69,11.32,1.39,2.79,2.25,5.72,2.71,8.8,.24,1.64,.35,3.3,.31,4.96,0,.45-.58,4.43-.45,4.51-.61-.38-.59-1.25-.67-1.97-.08-.72-.64-1.59-1.31-1.32-.37,.15-.53,.58-.65,.96-1.13,3.76-2.01,7.59-2.65,11.46-.08,.47-.14,.98-.06,1.44Z"/>
          <path class="cls-13" d="M91.04,58.58c.14,.33,.26,.68,.19,1.02-.07,.34-.43,.65-.76,.55,1.49,1.88,2.42,4.19,2.67,6.57,.05,.45,.02,.98-.36,1.22-.32,.2-.74,.08-1.1-.06-1.36-.53-2.7-1.19-3.79-2.16-1.1-.97-1.94-2.28-2.13-3.73-.17-1.26,.16-2.55-.12-3.79-.34-1.53-1.55-2.72-2.87-3.56-1.32-.84-2.8-1.41-4.13-2.24-.5-.31-1.04-.82-.87-1.39,.17-.58,.93-.71,1.53-.69,4.89,.19,9.89,3.79,11.76,8.26Z"/>
          <path class="cls-2" d="M44.26,36.18c-4.5-.91-7.78-3.36-11.15-6.3-3.42-2.98-7.14-5.68-11.27-7.6-.81-.38-1.66-.73-2.55-.78-.89-.05-1.86,.25-2.39,.97-1.81,2.44,1.38,6.91,3.03,8.57,.1,.11,.22,.22,.37,.23,.21,.01,.38-.19,.41-.4,.03-.21-.04-.42-.11-.61-.42-1.24-.69-2.53-.81-3.84-.03-.41-.04-.86,.23-1.18,.34-.4,.95-.38,1.47-.29,1.66,.3,3.23,1.03,4.53,2.1-.21-.35-1.1-.23-1.36,.09-.26,.31-.24,.79-.06,1.16,.18,.36,.5,.64,.81,.91,1.83,1.56,3.91,3.1,6.31,3.25,.29,.02,.6,0,.83-.17,.22-.18,.27-.59,.03-.73,3.42,2.95,7.18,4.43,11.69,4.64Z"/>
          <path class="cls-22" d="M29.16,57.44c.57,0,2.67,2.83,3.16,3.31,1.86,1.83,3.94,3.42,5.83,5.2,1.98,1.85,4.59,3.68,6.22,5.83-3.49-4.62-7.36-8.9-11.43-12.99-2.18-2.19-4.53-4.42-5.46-7.36-.65-2.04-.6-4.23-1-6.31-.36-1.86-1.92-3.53-3.06-5-1.63-2.11-3.27-4.22-4.9-6.33,.26,3.48,2.52,6.83,4.34,9.71,.9,1.42,1.79,2.91,2.22,4.55,.37,1.38,.25,2.74,.67,4.11,.62,2.02,2,3.71,3.41,5.28Z"/>
          <path class="cls-6" d="M8.5,19.63c-.4-1.59-.98-3.43-.15-4.98,.91-1.7,2.27-.89,3.63-.37,.87,.33,1.69,.77,2.47,1.27,.62,.4,1.44,1.33,2.12,1.53-1.65-.48-5.36-1.69-6.45,.26-.3,.54-.31,1.18-.28,1.8,.11,2.2,.6,4.38,1.45,6.41-1.22-1.82-2.27-3.78-2.8-5.91Z"/>
          <path class="cls-25" d="M83.74,101.27c3.76,2.25,7.77,4.1,11.92,5.51,1.69,.58,3.58,1.07,5.23,.37,1.6-.68,2.58-2.38,2.9-4.09s.12-3.47,0-5.21c-.46-6.55,.35-13.15,1.88-19.54-1.06,5.97-1.17,12.06-.44,18.08,.37,3.02,.97,6.06,.71,9.09-.1,1.22-.38,2.52-1.28,3.35-.97,.91-2.41,1.06-3.74,1.09-4.9,.08-9.81-.95-14.26-3.01-2.85-1.32-5.69-3.27-6.72-6.24-.17-.48-.21-1.14,.24-1.37,.38-.19,.82,.08,1.15,.34,.98,.76,1.34,.97,2.41,1.61Z"/>
          <path class="cls-18" d="M113.79,131.22c1.5,.85,3.12,1.66,4.84,1.66,.95,0,2.03-.37,2.37-1.26,.28-.73-.03-1.53-.35-2.24-1.01-2.2-2.23-4.3-3.64-6.27,.94-.88,.6-2.42,.13-3.62-1.54-3.96-3.72-7.68-6.43-10.96,2.08,2.68,3.62,5.78,4.51,9.05,.33,1.22,.57,2.55,.1,3.73-.2,.51-.53,.97-.67,1.5-.25,.98,.19,2.01,.76,2.85,.57,.84,1.28,1.6,1.66,2.54,.22,.54,.32,1.2,0,1.7-.31,.48-.94,.66-1.51,.59-.56-.07-1.08-.35-1.57-.63-5.49-3.16-10.1-7.61-14.65-12.02,1.33,3,3.56,5.57,6.15,7.56,2.7,2.08,5.3,4.12,8.31,5.83Z"/>
          <path class="cls-21" d="M85.28,40.46c-4.8-4.67-12.62-4.5-18.8-3.51,2.96,.23,5.77,.88,8.64,1.59,2.53,.63,5.02,.97,7.44,2.04,1.04,.46,2.12,1.06,2.62,2.08,.36,.73,.38,1.59,.78,2.3,.61,1.08,1.91,1.52,3.06,2,3.44,1.44,6.39,4.03,8.25,7.26-.28-2.02-1.94-3.75-3.44-5.13-1.5-1.38-3.21-2.52-4.61-3.99-1.4-1.46-2.48-3.22-3.93-4.64Z"/>
          <path class="cls-26" d="M106.16,71.96c0-1.16,.5-2.41,.54-3.61,.05-1.28-.05-2.56-.29-3.82-.46-2.44-1.45-4.98-3.03-6.92,.4,2.24,1.09,4.09,1.11,6.4,.03,2.72,.28,5.54,1.67,7.95Z"/>
          <path class="cls-3" d="M60.34,114.72c-.92-.97-2.21-1.51-3.45-2.01-3.34-1.36-6.68-2.98-10.1-4.09,1.43,5.16,9.01,7.04,13.55,6.11Z"/>
          <path class="cls-1" d="M80.55,27.53c.68,.18,1.44,.27,2.1,.48,1.28,.41,2.3,1.37,3.2,2.37,.9,.99,1.75,2.06,2.87,2.8,1.34,.89,8.56,1.97,6.32-1.57-.37-.58-.92-1.01-1.5-1.39-1.48-.96-3.22-1.65-4.31-3.05-.67-.86-1.05-1.94-1.82-2.71-1.21-1.21-3.76-1.5-5.39-1.54-.97-.02-1.99,.25-2.68,.94-.69,.69-.93,1.85-.4,2.67,.37,.57,.96,.84,1.62,1.01Z"/>
          <path class="cls-8" d="M110.41,50.37c.58,.38,1.42,.59,1.92,.11,.34-.33,.37-.87,.31-1.34-.18-1.44-1.43-3.59-3-3.91-1.53-.31-1.32,1.34-1.03,2.52,.25,1.05,.89,2.02,1.8,2.62Z"/>
          <path class="cls-15" d="M114.82,101.68c.28,.56,.61,1.12,1.14,1.45,.53,.33,1.3,.35,1.71-.12,.57-.65,.14-1.64-.27-2.41-1.36-2.58-2.12-5.48-2.2-8.4-.02-.69-.02-1.44-.41-2.01-1.99-2.9-2.03,3.17-1.99,3.79,.18,2.66,.81,5.31,2.01,7.69Z"/>
          <path class="cls-23" d="M127.12,124.93c.36,.47,.91,.97,1.46,.76,.58-.23,.61-1.03,.51-1.64-.4-2.43-1.35-4.89-3.24-6.47-.29-.24-.6-.46-.97-.55-3.16-.73,1.63,7.11,2.24,7.9Z"/>
          <path class="cls-4" d="M129.33,131.27c.12,1.3,1.2,2.5,2.13,3.31,.31,.27,.76,.51,1.11,.29,.24-.16,.31-.48,.34-.76,.14-1.44-.3-2.92-1.2-4.06-.95-1.2-2.05-1.01-2.35,.49-.05,.24-.06,.49-.04,.73Z"/>
          <path class="cls-16" d="M97.8,129.99c.44,.41,.9,.85,1.1,1.42,.21,.57,.08,1.3-.43,1.62-.42,.26-.96,.18-1.44,.06-2.27-.53-4.42-1.57-6.23-3.04-1.11-.9-4.43-3.89-3.61-5.58,.21-.43,.67-.71,1.15-.78s.96,.04,1.41,.21c1.28,.5,2.57,1.68,3.69,2.5,1.52,1.11,2.97,2.31,4.35,3.59Z"/>
          <path class="cls-5" d="M27.37,96.83c.13,.56,.18,1.15-.02,1.69-.2,.54-.7,.99-1.27,.98-.69-.01-1.19-.64-1.57-1.21-.84-1.23-1.7-2.57-1.67-4.05,.03-1.45,1.19-2.24,2.33-1.25,1.07,.93,1.9,2.48,2.21,3.85Z"/>
          <path class="cls-14" d="M21.8,77.19c-.26-.1-.45-.33-.6-.56-.79-1.22-1.1-2.74-.85-4.17,.44-2.49,3.41-3,3.84-.23,.17,1.11-.82,5.53-2.39,4.96Z"/>
          <path class="cls-17" d="M37.61,24.19c.52,.23,1.21,.37,1.61-.04,.4-.4,.25-1.08,0-1.59-.62-1.25-1.73-2.24-3.04-2.72-.37-.13-.79-.22-1.14-.04-.43,.22-.57,.79-.46,1.25,.34,1.46,1.74,2.56,3.03,3.13Z"/>
          <path class="cls-24" d="M8.68,1.65c-.09-.43-.02-.92,.28-1.25,.56-.62,1.58-.43,2.33-.08,1.84,.84,3.38,2.33,4.29,4.13,.19,.38,.36,.78,.38,1.2s-.11,.87-.44,1.14c-1.24,1.02-3.23-.66-4.02-1.53-.94-1.02-2.53-2.22-2.83-3.62Z"/>
          <path class="cls-10" d="M44.13,45.24c.97-.59,2.02-1.06,3.08-1.41,2.36-.78,4.85-1.09,7.33-1.29,.36-.03,.74-.06,1.05-.25s.52-.59,.38-.92c-.11-.25-.38-.39-.63-.5-1.68-.73-3.52-1.06-5.34-1-1.65,.05-3.3,.69-4.76,1.44-1.48,.76-2.72,2.25-4.48,2.32-.66,.03-1.31-.17-1.97-.14-1.4,.05-2.55,1.07-3.54,2.05-.71,.71-1.42,1.44-1.88,2.34-.45,.9-.62,1.99-.21,2.9,.27,.6,.75,1.07,1.09,1.64,1,1.66,.86,3.91,1.55,5.73,.72,1.87,1.88,3.57,3.37,4.91,.27,.24,.63,.49,.97,.36,.27-.1,.4-.42,.39-.7-.01-.29-.14-.55-.27-.81-.75-1.52-1.53-2.8-1.62-4.49-.11-1.93-.25-3.67,.23-5.59,.76-2.85,2.8-5.09,5.27-6.59Z"/>
          <path class="cls-10" d="M51.17,73.65c.24,.53,.8,1.4,1.46,1.44,.63,.04,1.12-.69,1.19-1.24,.09-.67-.19-1.33-.48-1.93-.68-1.38-1.5-2.68-2.46-3.88-.91-1.14-1.58-2.39-2.4-3.61-.35-.51-.94-1.07-1.48-.79-1.28,.66,.77,2.55,1.26,3.1,1.1,1.22,1.89,2.71,2.26,4.31,.17,.71,.25,1.44,.48,2.14,.05,.15,.11,.3,.18,.45Z"/>
          <path class="cls-10" d="M66.21,85.55c1.12,.94,2.44,1.66,3.84,2.1,.57,.18,1.13,.41,1.61-.06,.49-.47,.25-.86-.31-1.13-.96-.47-1.95-.87-2.84-1.44-.64-.41-1.48-1.03-2.29-.95-1.03,.1-.53,1.05-.02,1.48Z"/>
          <path class="cls-10" d="M65.26,89.38c2.18,1.84,4.19,3.99,6.8,5.16,1.17,.53,2.39,1.06,3.67,1.23,.44,.06,.9-.02,1.33,.07,.64,.14,1.3,.61,1.89,.9,.17,.08,.36,.23,.32,.41-.04,.18-.28,.21-.46,.21-2.16-.1-4.35-.4-6.54-.52-1.27-.09-2.54-.19-3.77-.52-2.71-.73-4.65-3.13-6.8-4.83-3.19-2.54-6.67-4.71-9.8-7.34-.52-.44-1.24-.86-1.68-1.37-.53-.62-.7-1.67-1.01-2.42-.8-1.89-1.8-3.71-2.98-5.39-.19-.28-.4-.56-.45-.89-.05-.33,.09-.72,.41-.83,.37-.13,.74,.17,1.02,.45,1.08,1.07,2.17,2.15,3.02,3.42,.87,1.3,1.48,2.8,2.53,3.96,.86,.94,1.97,1.6,3.06,2.25,3.24,1.93,6.54,3.63,9.43,6.07Z"/>
          <path class="cls-10" d="M59.04,45.74c1.2-.13,2.4-.31,3.64-.49,.34-.05,1.73-.28,1.85-.7,.17-.57-.95-.82-1.35-.84-.6-.03-1.19,.15-1.77,.29-1.98,.5-4.02,.74-6.06,.7-.49,0-.93-.12-1.36,.21-.26,.2-.38,.6-.18,.85,.17,.21,.48,.23,.75,.23,1.53,0,3-.1,4.47-.27Z"/>
          <path class="cls-10" d="M84.13,54.06c.21,.08,.43,.15,.65,.12,.22-.04,.43-.23,.41-.45-.01-.12-.08-.22-.15-.32-.58-.78-1.34-1.43-2.2-1.89-.6-.33-2.1-1.08-2.8-.77-1.16,.52,.39,1.48,.84,1.76,1.03,.61,2.12,1.13,3.24,1.55Z"/>
          <path class="cls-10" d="M89.42,66.01c.25,.15,.51,.29,.78,.42,.3,.14,.69,.25,.94,.04,.65-.56-.57-1.51-.95-1.84-.8-.71-1.44-1.44-1.73-2.51-.17-.63-.2-1.3-.47-1.89-.29-.62-1.14-1.38-1.51-.48-.28,.68-.04,1.79,.12,2.46,.39,1.67,1.42,2.94,2.83,3.8Z"/>
          <path class="cls-10" d="M90.88,52.09c1.5,1.19,2.8,2.62,3.95,4.14,.47,.63,1.05,1.25,1.48,1.9,.52,.8,.82,1.88,1.19,2.77,.07,.17,.17,.36,.35,.41,.2,.05,.39-.12,.45-.31s.01-.4-.03-.6c-1.42-5.92-6.26-10.89-12.14-12.47-1.46-.39-3.14-.7-3.93-1.99-.35-.57-.46-1.26-.82-1.82-.52-.83-1.47-1.26-2.37-1.65-1.51-.66-3.04-1.32-4.65-1.67-1.61-.35-3.34-.37-4.87,.24,2.62,.39,5.77,.36,8.07,1.77,1.1,.68,2.48,1.42,2.56,2.83,.04,.71-.05,1.48,.31,2.1,.57,.96,1.9,1.03,3.02,1.14,2.72,.28,5.29,1.5,7.43,3.2Z"/>
          <path class="cls-10" d="M98.02,78.73c-.14-.29-.46-.54-.76-.43-.38,.15-.78,1.35-.85,1.72-.08,.49,.05,.97,0,1.46-.19,1.64-.77,3.33-1.14,4.94-.09,.4-.1,.97,.3,1.08,.42,.11,.68-.44,.77-.86,.24-1.16,.48-2.31,.72-3.47,.07-.35,.15-.71,.34-1,.2-.3,.54-.52,.89-.47,.31,.05,.56,.29,.87,.36,.68,.16,1.22-.58,1.45-1.24,.33-.95,.45-1.97,.35-2.97-.38,.21-.54,.66-.66,1.07-.12,.41-.24,.87-.59,1.12-.46,.34-1.17,.23-1.42-.33-.13-.3-.14-.65-.26-.95,0,0,0-.02-.01-.03Z"/>
          <path class="cls-10" d="M100.26,71.08c.06,.21,.17,.4,.38,.4,.23,0,.36-.26,.43-.48,.33-1.08,.19-1.9,.1-2.96-.11-1.27-.16-2.5-.55-3.73-.09-.27-.19-.55-.38-.76-.45-.49-1.14-.28-1.21,.37-.07,.62,.43,1.58,.57,2.19,.37,1.58,.51,3.08,.63,4.71,0,.08,.02,.17,.04,.26Z"/>
          <path class="cls-10" d="M96,97.36c-2.16,1.58-5.58,2.1-8.15,1.47-.27-.07-.56-.15-.84-.1s-.56,.25-.57,.54c-.01,.29,.24,.52,.47,.7,1.02,.8,2.44,2.02,3.81,2.12,.95,.07,1.99-.62,2.84-.95,1.07-.42,2.15-.79,3.25-1.11,.23-.07,.48-.14,.72-.1,.24,.04,.48,.21,.51,.45,.07,.48-.62,.72-.75,1.19-.11,.39,.25,.79,.65,.86,.4,.07,.8-.1,1.15-.31,2.41-1.47,3.27-4.8,3.15-7.44-.03-.58-.11-1.19-.41-1.68-.18-.29-.44-.54-.62-.83-.67-1.05-.36-2.37-.33-3.54,.02-1.11-.3-2.2-.77-3.19-.12-.24-.27-.51-.53-.58-.27-.07-.56,.12-.69,.37-.13,.25-.14,.55-.15,.83-.07,3.65,.69,8.83-2.73,11.33Z"/>
          <path class="cls-11" d="M110.16,114.41c-.34,1.44-1,2.68-2.76,2.68-1.14,0-2.21-.56-3.18-1.16-.98-.6-1.96-1.25-3.09-1.44-.24-.04-.55-.02-.64,.2-.06,.14,0,.3,.07,.44,.31,.63,.75,1.2,1.27,1.67,.56,.5,1.23,.89,1.72,1.47,.55,.64,.85,1.48,1.4,2.12,.82,.95,2.14,1.37,3.4,1.32,1.86-.07,4.45-.86,5.15-2.76,.88-2.4-.8-5.62-2.18-7.53-.1-.14-.25-.3-.42-.26-.17,.04-.24,.25-.27,.42-.16,.82-.24,1.87-.46,2.82Z"/>
          <path class="cls-11" d="M118.82,138.23c1.22,.57,2.48,1.12,3.82,1.21s2.79-.37,3.57-1.47c.67-.95,.74-2.22,.44-3.35-.29-1.13-.9-2.14-1.5-3.13-1.05-1.74-2.11-3.48-3.16-5.22-.2-.33-.56-.71-.9-.53-.31,.17-.25,.63-.14,.96,.5,1.51,.99,3.02,1.49,4.53,.38,1.14,.74,2.45,.17,3.51-.5,.93-1.63,1.38-2.68,1.38-1.06,0-2.07-.37-3.06-.74-.95-.36-1.93-.63-2.91-.94-.21-.07-.48-.12-.62,.05-.2,.23,.04,.56,.27,.76,1.51,1.33,3.38,2.13,5.21,2.99Z"/>
          <path class="cls-11" d="M109.61,138.39c-.46-.36-.92-.72-1.23-1.21s-.43-1.14-.17-1.65c.26-.52,.99-.79,1.46-.45,.53,.38,.45,1.18,.65,1.8,.37,1.14,1.77,1.71,2.11,2.86,.04,.15,.05,.35-.08,.43-.08,.05-.19,.04-.28,.02-1.09-.23-2.09-.89-2.73-1.81l.27,.02Z"/>
          <path class="cls-11" d="M88.62,114.47c-.69-.23-1.32-.63-1.96-.99-.94-.52-1.82-.65-2.86-.78-1.81-.23-3.83-1.12-4.89-2.68-.2-.3-.37-.64-.39-1.01-.02-.36,.15-.75,.47-.92,.41-.21,.9-.02,1.32,.17,1.35,.62,2.74,1.16,4.07,1.84,1.17,.6,2.15,1.39,3.35,1.98,.71,.35,1.41,.8,1.8,1.49,.15,.26,.23,.63,.02,.84-.19,.2-.52,.17-.79,.09-.04-.01-.09-.03-.13-.04Z"/>
          <path class="cls-11" d="M114.95,98.09c-.29,.03-.58-.16-.74-.41-.41-.63-1.54-4.12-.83-4.72,1.55-1.3,1.58,5.12,1.57,5.12Z"/>
          <path class="cls-11" d="M124.58,118.31c-.23,.48-.04,1.05,.18,1.49,.32,.66,.62,1.28,1.08,1.86,.12,.14,.27,.3,.46,.28,.34-.03,.36-.52,.28-.85-.15-.61-.3-1.21-.45-1.82-.09-.36-.19-.74-.44-1.01-.27-.29-.8-.43-1.03-.08-.03,.04-.05,.09-.07,.13Z"/>
          <path class="cls-11" d="M129.68,131.1c.02,.44,.21,.87,.51,1.19,.11,.11,.25,.21,.4,.2,.19-.02,.32-.21,.39-.39,.2-.54,.14-1.15,0-1.71-.04-.15-.09-.31-.18-.44-.62-.89-1.14,.7-1.12,1.16Z"/>
          <path class="cls-11" d="M88.38,126.08c.95,1.64,2.78,1.26,4.24,1.89,.4,.17,.78,.42,1.18,.58,.27,.11,1.3,.4,1.4-.07,.09-.4-.81-.87-1.05-1.03-1.18-.8-2.36-1.6-3.54-2.39-.54-.36-1.02-.85-1.7-.62-.75,.25-.87,1-.54,1.64Z"/>
          <path class="cls-11" d="M23.29,35.69c.68,1.13,1.62,2.06,2.37,3.14,1.13,1.61,1.81,3.53,1.96,5.5,.05,.62,.18,1.42,.8,1.52,.44,.07,.85-.34,.93-.78,.09-.44-.06-.89-.2-1.32-.58-1.75-1.17-3.5-1.75-5.25-.29-.86-.55-1.89-.01-2.62,.54-.74,1.63-.78,2.53-.61,1.33,.25,2.58,.82,3.91,1.12s2.81,.28,3.91-.52c-2.97-2.4-7.48-1.85-10.63-4-.53-.36-1.01-.8-1.58-1.1-.57-.3-1.26-.46-1.85-.22-1.86,.75-1.09,3.93-.36,5.14Z"/>
          <path class="cls-11" d="M29.4,51.93c.27,.18,.64,.32,.89,.11,.2-.17,.2-.47,.17-.73-.06-.69-.18-1.37-.34-2.04-.12-.48-.29-1-.72-1.24-1.06-.61-1.42,.59-1.38,1.36,.04,1,.55,1.97,1.38,2.54Z"/>
          <path class="cls-11" d="M30.68,66.82c.46,.41,1.18,.81,1.64,.4,.27-.24,.29-.66,.16-1-.13-.33-.39-.6-.63-.86-1.53-1.63-2.83-3.46-3.87-5.44-.28-.53-.55-1.09-1.01-1.47-.77-.64-2.03-.45-2.03,.72,0,.82,.87,1.77,1.29,2.43,1.23,1.93,2.73,3.69,4.45,5.22Z"/>
          <path class="cls-11" d="M11.48,19.31c-.44,.92-.43,2.22-.38,3.09,.13,2.26,1.26,4.63,2.67,6.37,.16,.2,.38,.41,.62,.35,.26-.07,.34-.39,.34-.65,0-1.7-.91-3.42-1.1-5.12-.11-.99,.03-2.06,.64-2.86,.61-.79,1.77-1.21,2.66-.75-.75-.51-1.56-.92-2.41-1.24-.58-.22-1.21-.39-1.81-.24-.59,.14-.97,.54-1.22,1.05Z"/>
          <path class="cls-11" d="M4.33,6.39c-.37,.12-.74,.29-.99,.59-.25,.3-.35,.75-.15,1.09,.29,.5,.99,.51,1.57,.5,1.93-.03,3.87,.49,5.54,1.47,.32,.19,.65,.41,1.03,.44,.37,.04,.81-.17,.87-.54,.05-.33-.18-.62-.42-.86-1.73-1.73-4.95-3.48-7.44-2.7Z"/>
          <path class="cls-11" d="M31.17,22.4c.14,.2,.27,.47,.12,.66-.11,.14-.33,.15-.51,.12-1.17-.22-1.85-1.4-2.73-2.2-.47-.43-1.03-.76-1.63-.98-.42-.15-1.16-.12-1.49-.43-.76-.71,.13-1.36,.87-1.19,2.13,.5,4.13,2.29,5.37,4.02Z"/>
          <path class="cls-11" d="M13.68,6.18c.28,.06,.62,.05,.8-.17,.15-.19,.14-.46,.09-.7-.28-1.32-1.51-2.38-2.86-2.46-1.46-.08-.51,1.24-.03,1.8,.55,.63,1.16,1.34,2,1.53Z"/>
          <path class="cls-11" d="M38.59,22.82c-.04-1.64-3.91-1.58-1.6,.38,.26,.23,.61,.37,.96,.32s.65-.36,.65-.7Z"/>
          <path class="cls-11" d="M80.79,24.21c-.36,.02-.75,.12-.96,.41-.33,.45-.05,1.12,.42,1.43,.46,.31,1.04,.35,1.59,.46,1.29,.24,2.51,.82,3.5,1.66,.23,.19,.46,.41,.74,.5,.29,.09,.65,.01,.78-.26,.09-.2,.04-.43-.03-.63-.39-1.12-1.28-2.05-2.36-2.53-1.09-.48-2.48-1.12-3.68-1.03Z"/>
          <path class="cls-11" d="M90.52,33.02c.4,.12,.84,.21,1.23,.06,.39-.15,.68-.62,.5-1-.17-.36-.62-.45-1-.56-.6-.17-1.16-.47-1.62-.88-.28-.25-.52-.53-.83-.74-1.17-.8-1.99,.39-1.1,1.36,.76,.82,1.76,1.43,2.82,1.76Z"/>
          <path class="cls-11" d="M109.62,48.67c.17,.24,.43,.49,.72,.41,.26-.08,.36-.39,.39-.66,.07-.64-.06-1.3-.37-1.87-.32-.59-1.03-.86-1.3-.12-.24,.67,.2,1.7,.56,2.25Z"/>
          <path class="cls-11" d="M33.58,82.94c.66,.63,1.4,1.18,1.91,1.94,.49,.74,.69,1.62,.74,2.5,.04,.78-.24,1.31-.36,2.04-.33,1.97,.28,4.45,.79,6.35,.14,.53,.22,1.24-.27,1.47-.42,.19-.88-.17-1.16-.54-1.89-2.56-.98-6.27-2.28-9.18-.49-1.11-1.29-2.05-1.91-3.09-1.94-3.23-2.13-7.21-1.77-10.96,.04-.4,.09-.81,.33-1.14,.19-.26,.65-.51,.96-.32,.4,.24,.17,.83,.13,1.22-.19,1.92-.37,3.47,.22,5.32,.52,1.64,1.44,3.18,2.68,4.38Z"/>
          <path class="cls-11" d="M44.63,105.74c.28,.19,.57,.39,.75,.68s.22,.7-.01,.95c-.14,.16-.36,.23-.57,.27-1.74,.36-3.57-.45-4.82-1.71-1.25-1.26-2.01-2.93-2.62-4.6-.22-.61-.37-1.44,.18-1.8,1.14-.75,2.81,1.67,3.24,2.46,.84,1.55,2.41,2.75,3.85,3.75Z"/>
          <path class="cls-11" d="M50.71,105.29c-.2,.32-.2,.72-.11,1.08,.29,1.09,1.32,1.81,2.36,2.27,.41,.18,3.47,1.41,3.43,.38,0-.18-.14-.33-.27-.45-1.15-1.1-2.59-1.84-3.77-2.91-.46-.42-1.08-1.26-1.65-.38Z"/>
          <path class="cls-11" d="M67.16,110.78c-.31,.04-.62,.09-.88,.26-.26,.17-.45,.49-.36,.78,.09,.31,.42,.47,.73,.57,1.47,.5,3.09,.55,4.59,.13,.26-.07,.52-.16,.73-.32,.21-.16,.37-.42,.36-.68-.08-2.09-4.16-.88-5.17-.74Z"/>
          <path class="cls-11" d="M25.95,97.54s.1,.1,.16,.12c.11,.04,.24-.04,.3-.14,.06-.1,.08-.23,.08-.35,.04-.74-.56-4-1.82-3.43-1.41,.65,.73,3.23,1.26,3.79Z"/>
          <path class="cls-11" d="M22.25,74.45c.08,.16,.2,.32,.37,.34,.23,.03,.39-.2,.49-.41,.38-.85,.37-1.87-.04-2.71-.37-.77-.9-.48-1.1,.16-.26,.84-.12,1.84,.28,2.62Z"/>
        </g>
      </g>
    </g>
  </g>
</svg>